<?xml version="1.0" encoding="UTF-8" standalone="no"?>
<svg width="149px" height="46px" viewBox="0 0 149 46" version="1.1" xmlns="http://www.w3.org/2000/svg" xmlns:xlink="http://www.w3.org/1999/xlink">
    <!-- Generator: Sketch 45.1 (43504) - http://www.bohemiancoding.com/sketch -->
    <title>Group 34</title>
    <desc>Created with Sketch.</desc>
    <defs></defs>
    <g id="Page-1" stroke="none" stroke-width="1" fill="none" fill-rule="evenodd">
        <g id="Group-34">
            <g id="color_logo_transparent_background-copy" fill="#000000">
                <g id="SvgjsSvg1030">
                    <g id="SvgjsUse1032" transform="translate(0.338270, 0.296855)">
                        <g id="t1483749180464">
                            <path d="M31.6009297,0.728322901 L31.6009297,7.13135125 C30.5884113,7.13135125 29.9239461,7.29818667 29.6075341,7.63185751 C29.2911221,7.96552835 29.1329161,8.44877577 29.1329161,9.08159978 L29.1329161,26.1505891 L18.7603553,26.1505891 L9.75124264,12.0501197 L9.75124264,18.0216771 C9.75124264,18.76956 9.96985457,19.244178 10.4070784,19.4455311 C10.8443023,19.6468842 11.5691734,19.7475608 12.5816918,19.7475608 L12.5816918,26.1505891 L0.707612297,26.1505891 L0.707612297,19.7475608 C1.72013071,19.7475608 2.44500184,19.6123665 2.8822257,19.3419781 C3.31944956,19.0715897 3.53806149,18.562454 3.53806149,17.8145711 L3.53806149,9.08159978 C3.53806149,8.32221097 3.31944956,7.80732235 2.8822257,7.53693391 C2.44500184,7.26654547 1.72013071,7.13135125 0.707612297,7.13135125 L0.707612297,0.728322901 L14.2730578,0.728322901 L22.9024761,14.2419919 L22.9024761,9.08159978 C22.9024761,8.32221097 22.7442701,7.80732235 22.4278581,7.53693391 C22.1114461,7.26654547 21.4469809,7.13135125 20.4344624,7.13135125 L20.4344624,0.728322901 L31.6009297,0.728322901 L31.6009297,0.728322901 Z M32.6537187,26.1505891 L32.6537187,19.7475608 C33.6662371,19.7475608 34.3911082,19.6123665 34.8283321,19.3419781 C35.265556,19.0715897 35.4841679,18.562454 35.4841679,17.8145711 L35.4841679,9.08159978 C35.4841679,8.32221097 35.265556,7.80732235 34.8283321,7.53693391 C34.3911082,7.26654547 33.6662371,7.13135125 32.6537187,7.13135125 L32.6537187,0.728322901 L48.4800718,0.728322901 L48.4800718,7.13135125 C47.4675534,7.13135125 46.7455587,7.26654547 46.3140878,7.53693391 C45.8826169,7.80732235 45.6668814,8.32221097 45.6668814,9.08159978 L45.6668814,17.8145711 C45.6668814,18.562454 45.8826169,19.0715897 46.3140878,19.3419781 C46.7455587,19.6123665 47.4675534,19.7475608 48.4800718,19.7475608 L48.4800718,26.1505891 L32.6537187,26.1505891 L32.6537187,26.1505891 Z M80.7886138,0.728322901 L80.7886138,7.13135125 C79.7760954,7.13135125 79.1116302,7.29818667 78.7952182,7.63185751 C78.4788061,7.96552835 78.3206001,8.44877577 78.3206001,9.08159978 L78.3206001,26.1505891 L67.9480394,26.1505891 L58.9389267,12.0501197 L58.9389267,18.0216771 C58.9389267,18.76956 59.1575387,19.244178 59.5947625,19.4455311 C60.0319864,19.6468842 60.7568575,19.7475608 61.7693759,19.7475608 L61.7693759,26.1505891 L49.8952964,26.1505891 L49.8952964,19.7475608 C50.9078148,19.7475608 51.6326859,19.6123665 52.0699098,19.3419781 C52.5071337,19.0715897 52.7257456,18.562454 52.7257456,17.8145711 L52.7257456,9.08159978 C52.7257456,8.32221097 52.5071337,7.80732235 52.0699098,7.53693391 C51.6326859,7.26654547 50.9078148,7.13135125 49.8952964,7.13135125 L49.8952964,0.728322901 L63.4607419,0.728322901 L72.0901602,14.2419919 L72.0901602,9.08159978 C72.0901602,8.32221097 71.9319542,7.80732235 71.6155422,7.53693391 C71.2991302,7.26654547 70.6346649,7.13135125 69.6221465,7.13135125 L69.6221465,0.728322901 L80.7886138,0.728322901 L80.7886138,0.728322901 Z M97.9611561,19.7475608 C98.4328976,19.7475608 98.8269744,19.7072901 99.1433864,19.6267489 C99.4597984,19.5462077 99.712928,19.3937546 99.9027752,19.1693897 C100.092622,18.9450249 100.222064,18.6372423 100.291099,18.246042 C100.360134,17.8548417 100.394652,17.3543354 100.394652,16.7445232 L106.435245,16.7445232 L106.435245,26.1505891 L81.8414028,26.1505891 L81.8414028,19.7475608 C82.8539212,19.7475608 83.5787923,19.6123665 84.0160162,19.3419781 C84.4532401,19.0715897 84.671852,18.562454 84.671852,17.8145711 L84.671852,9.08159978 C84.671852,8.32221097 84.4532401,7.80732235 84.0160162,7.53693391 C83.5787923,7.26654547 82.8539212,7.13135125 81.8414028,7.13135125 L81.8414028,0.728322901 L106.435245,0.728322901 L106.435245,10.1343888 L100.394652,10.1343888 C100.394652,9.52457658 100.360134,9.02407032 100.291099,8.63287003 C100.222064,8.24166973 100.092622,7.93676362 99.9027752,7.71815169 C99.712928,7.49953976 99.4597984,7.34708671 99.1433864,7.26079253 C98.8269744,7.17449834 98.4328976,7.13135125 97.9611561,7.13135125 L94.8545655,7.13135125 L94.8545655,11.7222018 L100.360134,11.7222018 L100.360134,14.7770158 L94.8545655,14.7770158 L94.8545655,19.7475608 L97.9611561,19.7475608 L97.9611561,19.7475608 Z M108.023058,3.92120766 C108.517811,3.92120766 109.049959,3.87230762 109.6195,3.77450755 C110.189042,3.67670747 110.706807,3.50987205 111.172795,3.27400129 C111.638784,3.03813052 112.027108,2.71596557 112.337767,2.30750644 C112.648426,1.89904731 112.803756,1.3726528 112.803756,0.728322901 L120.794597,0.728322901 L120.794597,17.8836064 C120.794597,18.6545011 120.981568,19.1578838 121.355509,19.3937546 C121.72945,19.6296254 122.209821,19.7475608 122.796622,19.7475608 L123.970223,19.7475608 L123.970223,26.1505891 L108.385493,26.1505891 L108.385493,19.7475608 L109.7662,19.7475608 C110.376013,19.7475608 110.827619,19.5548371 111.121019,19.1693897 C111.414419,18.7839424 111.561119,18.3668538 111.561119,17.9181241 L111.561119,9.61662371 L108.023058,9.61662371 L108.023058,3.92120766 L108.023058,3.92120766 Z M134.826031,21.9049153 C136.379326,21.9049153 137.544298,21.4935797 138.320945,20.6709085 C139.097593,19.8482373 139.485917,18.7983247 139.485917,17.5211708 C139.485917,16.1864875 139.057322,15.1653397 138.200133,14.4577274 C137.342945,13.7501151 136.183726,13.3963089 134.722478,13.3963089 C133.755983,13.3963089 132.979335,13.494109 132.392535,13.6897091 C131.805735,13.8853093 131.368511,14.0463918 131.080863,14.1729566 L126.766154,14.1729566 L126.766154,0.383146171 L127.508284,0.383146171 C128.405744,0.544228645 129.202527,0.673669919 129.898633,0.771469993 C130.59474,0.869270066 131.296599,0.941181885 132.004211,0.987205449 C132.711823,1.03322901 133.471212,1.06199374 134.282378,1.07349963 C135.093543,1.08500552 136.051408,1.09075847 137.155974,1.09075847 C138.45614,1.09075847 139.600976,1.07925258 140.590482,1.0562408 C141.579989,1.03322901 142.457313,0.99871134 143.222455,0.952687776 C143.987597,0.906664212 144.675074,0.834752393 145.284886,0.73695232 C145.894698,0.639152246 146.475746,0.521216863 147.028028,0.383146171 L147.873711,0.728322901 C147.632088,1.72933542 147.318552,2.65268317 146.933105,3.49836616 C146.547657,4.34404915 145.972363,5.06604381 145.207221,5.66435015 C144.442079,6.26265648 143.415179,6.73439801 142.126519,7.07957474 C140.837859,7.42475147 139.192517,7.59733984 137.190492,7.59733984 C136.016891,7.59733984 135.105049,7.56857511 134.454966,7.51104566 C133.804883,7.4535162 133.266983,7.37297496 132.841265,7.26942194 L132.841265,9.5648472 C133.059877,9.49581186 133.287118,9.4382824 133.522989,9.39225884 C133.75886,9.34623527 134.035001,9.30021171 134.351413,9.25418814 C134.667825,9.20816458 135.03889,9.17364691 135.464608,9.15063513 C135.890326,9.12762334 136.396585,9.11611745 136.983385,9.11611745 C139.192517,9.11611745 141.047841,9.35774116 142.54936,9.84098859 C144.050879,10.324236 145.247492,10.9829483 146.139198,11.8171254 C147.030905,12.6513025 147.666605,13.6177973 148.0463,14.7166099 C148.425994,15.8154225 148.615841,16.974641 148.615841,18.1942655 C148.615841,19.4484076 148.374218,20.5989967 147.89097,21.6460328 C147.407723,22.6930689 146.665593,23.6049107 145.66458,24.3815584 C144.663568,25.158206 143.395043,25.7651418 141.859007,26.2023656 C140.32297,26.6395895 138.49641,26.8582014 136.379326,26.8582014 C132.824006,26.8582014 130.045333,26.2397598 128.043308,25.0028765 C126.041283,23.7659932 125.040271,22.0142213 125.040271,19.7475608 C125.040271,18.9306425 125.169712,18.2144008 125.428594,17.5988356 C125.687477,16.9832704 126.029777,16.4827642 126.455495,16.0973168 C126.881213,15.7118695 127.364461,15.4242222 127.905237,15.234375 C128.446014,15.0445278 128.986791,14.9496042 129.527568,14.9496042 C130.873757,14.9496042 131.87477,15.2314985 132.530606,15.7952872 C133.186441,16.3590758 133.514359,17.0896999 133.514359,17.9871594 C133.514359,18.8846189 133.255477,19.5634665 132.737712,20.0237021 C132.219947,20.4839378 131.610134,20.8176086 130.908275,21.0247147 C131.472064,21.3123619 132.07037,21.5309739 132.703194,21.6805504 C133.336018,21.830127 134.04363,21.9049153 134.826031,21.9049153 L134.826031,21.9049153 Z" id="Shape"></path>
                        </g>
                    </g>
                </g>
            </g>
            <path d="M1.2,39.976 C0.96,40.072 0.848,40.264 0.848,40.632 L0.848,41.72 C0.848,42.088 0.96,42.28 1.2,42.376 L7.696,44.936 C7.888,45.016 8.208,45.048 8.208,44.664 L8.208,43.24 C8.208,42.824 7.92,42.744 7.728,42.664 L3.648,41.176 L7.728,39.688 C7.92,39.608 8.208,39.528 8.208,39.112 L8.208,37.672 C8.208,37.288 7.888,37.336 7.696,37.416 L1.2,39.976 Z M18.352,41.88 C18.352,41.496 18.224,41.336 17.872,41.336 L16.304,41.336 C15.952,41.336 15.92,41.592 15.872,41.912 C15.744,42.68 15.056,43 14.192,43 C13.136,43 12.416,42.424 12.416,41.4 L12.416,38.072 C12.416,37.064 13.136,36.472 14.192,36.472 C15.056,36.472 15.504,36.712 15.84,37.24 C15.968,37.432 15.984,37.736 16.32,37.736 L17.856,37.736 C18.224,37.736 18.352,37.656 18.352,37.272 C18.144,35.24 16.176,34.232 14.192,34.232 C12.288,34.232 9.904,35.336 9.904,37.848 L9.904,41.624 C9.904,44.136 12.288,45.24 14.192,45.24 C16.176,45.24 18.352,43.944 18.352,41.88 Z M27.472,42.76 L22.864,42.76 L22.864,34.936 C22.864,34.568 22.688,34.472 22.4,34.472 L20.816,34.472 C20.528,34.472 20.352,34.568 20.352,34.936 L20.352,44.536 C20.352,44.824 20.448,45 20.816,45 L27.472,45 C27.84,45 27.936,44.824 27.936,44.536 L27.936,43.224 C27.936,42.936 27.84,42.76 27.472,42.76 Z M37.536,34.472 L35.952,34.472 C35.664,34.472 35.488,34.568 35.488,34.936 L35.488,41.432 C35.488,42.44 34.816,43.016 33.76,43.016 C32.704,43.016 32.048,42.44 32.048,41.432 L32.048,34.936 C32.048,34.568 31.872,34.472 31.584,34.472 L30,34.472 C29.712,34.472 29.536,34.568 29.536,34.936 L29.536,41.784 C29.536,44.296 31.856,45.24 33.76,45.24 C35.664,45.24 38,44.296 38,41.784 L38,34.936 C38,34.568 37.824,34.472 37.536,34.472 Z M47.744,39.544 C47.872,39.592 49.216,40.2 49.216,41.928 C49.216,43.96 47.632,45 45.408,45 L40.704,45 C40.336,45 40.24,44.824 40.24,44.536 L40.24,34.92 C40.24,34.632 40.336,34.456 40.704,34.456 L45.184,34.456 C47.792,34.456 48.912,35.848 48.912,37.352 C48.912,38.968 47.888,39.48 47.744,39.544 Z M45.44,42.728 C46.224,42.728 46.672,42.408 46.672,41.688 C46.672,40.936 46.112,40.712 45.344,40.712 L44.976,40.712 C44.608,40.712 44.512,40.536 44.512,40.248 L44.512,39.032 C44.512,38.744 44.608,38.568 44.976,38.568 L45.184,38.568 C46.112,38.568 46.512,38.232 46.512,37.608 C46.512,36.888 46.016,36.712 45.184,36.712 L42.752,36.712 L42.752,42.728 L45.44,42.728 Z M51.408,37.416 C51.216,37.336 50.896,37.288 50.896,37.672 L50.896,39.112 C50.896,39.528 51.184,39.608 51.376,39.688 L55.456,41.176 L51.376,42.664 C51.184,42.744 50.896,42.824 50.896,43.24 L50.896,44.664 C50.896,45.048 51.216,45.016 51.408,44.936 L57.904,42.376 C58.144,42.28 58.256,42.088 58.256,41.72 L58.256,40.632 C58.256,40.264 58.144,40.072 57.904,39.976 L51.408,37.416 Z" id="&lt;CLUB&gt;" fill="#F9BB01"></path>
        </g>
    </g>
</svg>