<?xml version="1.0" encoding="UTF-8" standalone="no"?>
<svg width="30px" height="30px" viewBox="0 0 30 30" version="1.1" xmlns="http://www.w3.org/2000/svg" xmlns:xlink="http://www.w3.org/1999/xlink">
    <!-- Generator: Sketch 45.1 (43504) - http://www.bohemiancoding.com/sketch -->
    <title>Group 8</title>
    <desc>Created with Sketch.</desc>
    <defs>
        <circle id="path-1" cx="15" cy="15" r="15"></circle>
        <path d="M0,15 C0,23.2842712 6.71572875,30 15,30 C23.2842712,30 30,23.2842712 30,15 C30,6.71572875 23.2842712,0 15,0 L15,15 L-1.77635684e-15,15 Z" id="path-2"></path>
    </defs>
    <g id="Symbols" stroke="none" stroke-width="1" fill="none" fill-rule="evenodd">
        <g id="Group-8">
            <g id="Group-7">
                <g id="Oval-8-Copy">
                    <use fill="#FFFFFF" fill-rule="evenodd" xlink:href="#path-1"></use>
                    <circle stroke="#FFDD15" stroke-width="1" cx="15" cy="15" r="14.5"></circle>
                </g>
                <g id="Combined-Shape">
                    <use fill="#FFF1A1" fill-rule="evenodd" xlink:href="#path-2"></use>
                    <path stroke="#FFDD15" stroke-width="1" d="M0.508459099,15.5 C0.7719802,23.2766121 7.15921504,29.5 15,29.5 C23.0081289,29.5 29.5,23.0081289 29.5,15 C29.5,7.15921504 23.2766121,0.7719802 15.5,0.508459099 L15.5,15.5 L0.508459099,15.5 Z"></path>
                </g>
            </g>
            <circle id="Oval-8" fill="#FFDD15" cx="15.1753012" cy="15.1753012" r="5.44728691"></circle>
        </g>
    </g>
</svg>