<?xml version="1.0" encoding="UTF-8" standalone="no"?>
<svg width="31px" height="38px" viewBox="0 0 31 38" version="1.1" xmlns="http://www.w3.org/2000/svg" xmlns:xlink="http://www.w3.org/1999/xlink">
    <!-- Generator: Sketch 45.1 (43504) - http://www.bohemiancoding.com/sketch -->
    <title>Group 4</title>
    <desc>Created with Sketch.</desc>
    <defs></defs>
    <g id="Symbols" stroke="none" stroke-width="1" fill="none" fill-rule="evenodd">
        <g id="Group-4" transform="translate(0.916341, 0.013319)" fill-rule="nonzero" fill="#0076BF">
            <g id="rubbish-bin">
                <path d="M27.3960955,4.46531623 L22.3327524,4.46531623 L22.3327524,1.17504197 C22.3327524,0.512755384 21.7985445,0 21.1363069,0 C21.0720471,0 21.029191,0.0214525607 21.0082772,0.042856143 C20.9868246,0.0214525607 20.9439685,0 20.9225649,0 L9.02241807,0 L8.93719556,0 L8.85148328,0 C8.18924567,0 7.67649028,0.512755384 7.67649028,1.17504197 L7.67649028,4.4653652 L2.59174361,4.4653652 C1.13869996,4.4653652 0.00651413373,5.59755103 0.00651413373,7.05059468 L0.00651413373,8.93073041 L0.00651413373,11.2807654 L2.24987404,11.2807654 L2.24987404,35.358571 C2.24987404,36.8116636 3.36065628,37.9223968 4.81369993,37.9223968 L25.1741882,37.9223968 C26.6272318,37.9223968 27.7593687,36.8116636 27.7593687,35.358571 L27.7593687,11.2807654 L29.981325,11.2807654 L29.981325,8.93073041 L29.981325,7.05059468 C29.981325,5.59755103 28.8486983,4.46531623 27.3960955,4.46531623 Z M10.0265253,2.35003497 L19.9613139,2.35003497 L19.9613139,4.46531623 L10.0265253,4.46531623 L10.0265253,2.35003497 L10.0265253,2.35003497 Z M25.3879301,35.3586199 C25.3879301,35.508543 25.3236704,35.5723129 25.1741882,35.5723129 L4.81369993,35.5723129 C4.66421771,35.5723129 4.59995798,35.508494 4.59995798,35.3586199 L4.59995798,11.2807164 L25.3879301,11.2807164 L25.3879301,35.3586199 L25.3879301,35.3586199 Z M27.6098864,8.93068143 L2.37795268,8.93068143 L2.37795268,7.0505457 C2.37795268,6.9010145 2.44221241,6.81535119 2.59169463,6.81535119 L27.3960955,6.81535119 C27.5456267,6.81535119 27.6098864,6.9010145 27.6098864,7.0505457 L27.6098864,8.93068143 Z" id="Shape"></path>
                <rect id="Rectangle-path" x="19.2990273" y="14.0368807" width="2.37143855" height="19.4416035"></rect>
                <rect id="Rectangle-path" x="13.8296039" y="14.0368807" width="2.37143855" height="19.4416035"></rect>
                <rect id="Rectangle-path" x="8.36013148" y="14.0368807" width="2.37143855" height="19.4416035"></rect>
            </g>
        </g>
    </g>
</svg>