<?xml version="1.0" encoding="UTF-8" standalone="no"?>
<svg width="170px" height="170px" viewBox="0 0 170 170" version="1.1" xmlns="http://www.w3.org/2000/svg" xmlns:xlink="http://www.w3.org/1999/xlink">
    <!-- Generator: Sketch 41.2 (35397) - http://www.bohemiancoding.com/sketch -->
    <title>Group 42 Copy 2</title>
    <desc>Created with Sketch.</desc>
    <defs>
        <polygon id="path-1" points="44.0824209 0 0.243345937 0 0.243345937 43.823751 44.0824209 43.823751 44.0824209 2.68139297e-14"></polygon>
        <polygon id="path-3" points="0.30445375 169.817631 151 169.817631 151 60.258088 0.30445375 60.258088"></polygon>
        <polygon id="path-5" points="-18.875 169.817631 151 169.817631 151 0 -18.875 0"></polygon>
    </defs>
    <g id="Page-1" stroke="none" stroke-width="1" fill="none" fill-rule="evenodd">
        <g id="Group-42-Copy-2" transform="translate(19.000000, 0.000000)">
            <g id="Group-40">
                <path d="M33.1834769,106.820762 C24.1168706,106.820762 16.7438237,99.4502047 16.7438237,90.3866603 C16.7438237,81.3235877 24.1168706,73.9530309 33.1834769,73.9530309 C42.2500831,73.9530309 49.62313,81.3235877 49.62313,90.3866603 C49.62313,99.4502047 42.2500831,106.820762 33.1834769,106.820762 Z M33.1834769,68.4749971 C21.0978144,68.4749971 11.2639394,78.3050794 11.2639394,90.3866603 C11.2639394,102.468713 21.0978144,112.298795 33.1834769,112.298795 C45.2691394,112.298795 55.1030144,102.468713 55.1030144,90.3866603 C55.1030144,78.3050794 45.2691394,68.4749971 33.1834769,68.4749971 Z" id="Fill-1" fill="#F9BB01"></path>
                <path d="M35.9233719,79.5705037 L35.9233719,76.6916232 L30.4434875,76.6916232 L30.4434875,79.5705037 C27.3201469,80.2059047 24.9636031,82.9725169 24.9636031,86.2783001 C24.9636031,90.0553273 28.0350375,93.1257244 31.8133406,93.1257244 L34.5535188,93.1257244 C35.3071031,93.1257244 35.9233719,93.7422567 35.9233719,94.4951149 C35.9233719,95.2484448 35.3071031,95.8649771 34.5535188,95.8649771 L31.8133406,95.8649771 C31.0602281,95.8649771 30.4434875,95.2484448 30.4434875,94.4951149 L30.4434875,93.1257244 L24.9636031,93.1257244 L24.9636031,94.4951149 C24.9636031,97.8042001 27.3201469,100.56751 30.4434875,101.202911 L30.4434875,104.081792 L35.9233719,104.081792 L35.9233719,101.202911 C39.0467125,100.56751 41.4032563,97.8013698 41.4032563,94.4951149 C41.4032563,90.7180878 38.3318219,87.6476907 34.5535188,87.6476907 L31.8133406,87.6476907 C31.0602281,87.6476907 30.4434875,87.03163 30.4434875,86.2783001 C30.4434875,85.5249703 31.0602281,84.9089096 31.8133406,84.9089096 L34.5535188,84.9089096 C35.3071031,84.9089096 35.9233719,85.5249703 35.9233719,86.2783001 L35.9233719,87.6476907 L41.4032563,87.6476907 L41.4032563,86.2783001 C41.4032563,82.9696866 39.0467125,80.2059047 35.9233719,79.5705037" id="Fill-3" fill="#F9BB01"></path>
                <path d="M52.3628834,5.47798656 C61.4294897,5.47798656 68.8025366,12.8485434 68.8025366,21.9120878 C68.8025366,30.9751604 61.4294897,38.3457172 52.3628834,38.3457172 C43.2962772,38.3457172 35.9232303,30.9751604 35.9232303,21.9120878 C35.9232303,12.8485434 43.2962772,5.47798656 52.3628834,5.47798656 M52.3628834,43.823751 C64.4485459,43.823751 74.2824209,33.9936687 74.2824209,21.9120878 C74.2824209,9.83003506 64.4485459,-4.71715639e-05 52.3628834,-4.71715639e-05 C40.2772209,-4.71715639e-05 30.4433459,9.83003506 30.4433459,21.9120878 C30.4433459,33.9936687 40.2772209,43.823751 52.3628834,43.823751" id="Fill-5" fill="#F9BB01"></path>
                <g id="Group-39" transform="translate(30.200000, 0.000000)">
                    <mask id="mask-2" fill="white">
                        <use xlink:href="#path-1"></use>
                    </mask>
                    <g id="Clip-6"></g>
                    <path d="M19.4229884,32.7282444 L19.4229884,35.6071249 L24.9028728,35.6071249 L24.9028728,32.7282444 C28.0262134,32.0928434 30.3827572,29.3262312 30.3827572,26.020448 C30.3827572,22.2434208 27.3113228,19.1730237 23.5330197,19.1730237 L20.7928416,19.1730237 C20.0392572,19.1730237 19.4229884,18.5564914 19.4229884,17.8036332 C19.4229884,17.0503033 20.0392572,16.433771 20.7928416,16.433771 L23.5330197,16.433771 C24.2861322,16.433771 24.9028728,17.0503033 24.9028728,17.8036332 L24.9028728,19.1730237 L30.3827572,19.1730237 L30.3827572,17.8036332 C30.3827572,14.494548 28.0262134,11.7312378 24.9028728,11.0958368 L24.9028728,8.21695626 L19.4229884,8.21695626 L19.4229884,11.0958368 C16.2996478,11.7312378 13.9431041,14.4973783 13.9431041,17.8036332 C13.9431041,21.5806604 17.0145384,24.6510575 20.7928416,24.6510575 L23.5330197,24.6510575 C24.2861322,24.6510575 24.9028728,25.2671181 24.9028728,26.020448 C24.9028728,26.7737778 24.2861322,27.3898385 23.5330197,27.3898385 L20.7928416,27.3898385 C20.0392572,27.3898385 19.4229884,26.7737778 19.4229884,26.020448 L19.4229884,24.6510575 L13.9431041,24.6510575 L13.9431041,26.020448 C13.9431041,29.3290615 16.2996478,32.0928434 19.4229884,32.7282444" id="Fill-8" fill="#F9BB01" mask="url(#mask-2)"></path>
                </g>
                <path d="M87.7153338,68.3351806 L87.7153338,71.2140612 L93.1952181,71.2140612 L93.1952181,68.3351806 C96.3185588,67.6997796 98.6751025,64.9331674 98.6751025,61.6273842 C98.6751025,57.8503571 95.6036681,54.77996 91.825365,54.77996 L89.0851869,54.77996 C88.3316025,54.77996 87.7153338,54.1634276 87.7153338,53.4105695 C87.7153338,52.6572396 88.3316025,52.0407072 89.0851869,52.0407072 L91.825365,52.0407072 C92.5784775,52.0407072 93.1952181,52.6572396 93.1952181,53.4105695 L93.1952181,54.77996 L98.6751025,54.77996 L98.6751025,53.4105695 C98.6751025,50.1014842 96.3185588,47.338174 93.1952181,46.7027731 L93.1952181,43.8238925 L87.7153338,43.8238925 L87.7153338,46.7027731 C84.5919931,47.338174 82.2354494,50.1043145 82.2354494,53.4105695 C82.2354494,57.1875966 85.3068838,60.2579937 89.0851869,60.2579937 L91.825365,60.2579937 C92.5784775,60.2579937 93.1952181,60.8740543 93.1952181,61.6273842 C93.1952181,62.3807141 92.5784775,62.9967747 91.825365,62.9967747 L89.0851869,62.9967747 C88.3316025,62.9967747 87.7153338,62.3807141 87.7153338,61.6273842 L87.7153338,60.2579937 L82.2354494,60.2579937 L82.2354494,61.6273842 C82.2354494,64.9359977 84.5919931,67.6997796 87.7153338,68.3351806" id="Fill-12" fill="#F9BB01"></path>
                <mask id="mask-4" fill="white">
                    <use xlink:href="#path-3"></use>
                </mask>
                <g id="Clip-15"></g>
                <path d="M140.040326,118.527234 L134.05931,120.504666 L99.1523569,120.504666 L72.3753381,115.150222 L59.1741631,108.639603 C58.0152381,108.06694 57.5221287,106.694719 58.0591225,105.516845 C58.3361131,104.903615 58.8400756,104.448881 59.4785225,104.238024 C60.1113069,104.018676 60.7879756,104.081886 61.3745162,104.407842 L70.7860631,109.548599 L96.7934537,109.548599 L107.602222,104.144624 L92.2861037,96.0046993 C91.0313881,95.3391085 90.4174787,93.8682991 90.8341444,92.5069278 C91.0724412,91.7205778 91.6066037,91.079988 92.3408412,90.7101629 C93.0755506,90.3403379 93.9027475,90.2879774 94.6808694,90.5540251 L116.833041,98.3245968 L125.455613,104.071037 L140.040326,104.071037 L140.040326,118.527234 Z M74.6629881,96.7438777 C75.5836162,95.4565657 77.800485,95.7362931 78.3837225,97.1957813 L81.1210694,104.040847 L76.1866725,104.057357 L74.372785,98.6750815 C74.1505319,98.0151513 74.2576475,97.3108799 74.6629881,96.7438777 L74.6629881,96.7438777 Z M126.340851,139.68887 C126.340851,144.219227 122.652676,147.905684 118.120788,147.905684 L14.0039287,147.905684 C9.47204125,147.905684 5.78433812,144.219227 5.78433812,139.68887 L5.78433812,136.949617 L126.340851,136.949617 L126.340851,139.68887 Z M44.1430569,164.339786 L87.98166,164.339786 L87.98166,153.383718 L44.1430569,153.383718 L44.1430569,164.339786 Z M151.000094,98.593003 L151.000094,93.1149693 L140.040326,93.1149693 L140.040326,98.593003 L131.820735,98.593003 L131.820735,73.9529365 C131.820735,66.4012408 125.675035,60.258088 118.120788,60.258088 L112.070879,60.258088 C111.779732,61.2118971 111.310216,62.1303274 111.033226,63.0883819 C110.774638,63.9851133 110.449516,64.8559004 110.110238,65.7214986 C110.139494,65.7271592 110.169222,65.7295178 110.198479,65.7356501 L118.120788,65.7356501 C122.652676,65.7356501 126.340851,69.4225795 126.340851,73.9529365 L126.340851,98.0807198 L119.581241,93.574892 L96.4890944,85.3882671 C94.2892131,84.6155969 91.9326694,84.774565 89.8559475,85.8264909 C87.7763944,86.8807754 86.2583725,88.69122 85.584535,90.9181895 C84.4119256,94.7801255 86.1488975,98.9571675 89.7134412,100.844502 L95.6425506,103.994147 L87.0176194,104.021507 L83.4747819,95.1579697 C82.3101944,92.2493711 79.5346256,90.3728862 76.4004319,90.3728862 C73.9532881,90.3728862 71.6411006,91.5592511 70.2136787,93.5447022 C68.785785,95.5334554 68.3997912,98.1024187 69.1807444,100.422316 L70.0079412,102.879483 L63.9967256,99.5953987 C62.0870475,98.5543223 59.8017569,98.3519563 57.7358881,99.039246 C55.6643569,99.7321963 53.9627756,101.266216 53.0614944,103.254497 C51.3023444,107.138604 52.9189881,111.66047 56.7468381,113.547804 L70.2712475,120.21975 L98.344035,125.927981 L126.340851,125.97185 L126.340851,131.471583 L5.78433812,131.471583 L5.78433812,73.9529365 C5.78433812,69.4225795 9.47204125,65.7356501 14.0039287,65.7356501 L71.7670912,65.7356501 C71.798235,65.7894256 71.8336256,65.8398992 71.8652412,65.8932031 C71.8822287,65.6738553 71.9086537,65.4512055 71.9577287,65.2233669 C71.9789631,65.1233632 72.0152975,65.0346806 72.0469131,64.9426961 C72.0275662,64.8327863 72.0001975,64.7224049 71.9629194,64.6115517 C71.8723194,64.4356018 71.7859662,64.261067 71.7137694,64.0917211 C71.6717725,63.9926608 71.6241131,63.8978459 71.5807006,63.7997291 C71.3329662,63.3695244 71.0474819,62.9647924 70.8625069,62.6360066 C70.4146975,61.8402223 69.9621694,61.0472683 69.5039787,60.258088 L14.0039287,60.258088 C6.45015375,60.258088 0.30445375,66.4012408 0.30445375,73.9529365 L0.30445375,139.68887 C0.30445375,147.240094 6.45015375,153.383718 14.0039287,153.383718 L38.6631725,153.383718 L38.6631725,164.339786 L33.1832881,164.339786 L33.1832881,169.817819 L98.9414287,169.817819 L98.9414287,164.339786 L93.4615444,164.339786 L93.4615444,153.383718 L118.120788,153.383718 C125.675035,153.383718 131.820735,147.240094 131.820735,139.68887 L131.820735,125.977511 L134.944076,125.9827 L140.040326,124.295373 L140.040326,128.721953 L151.000094,128.721953 L151.000094,123.243919 L145.52021,123.243919 L145.52021,98.593003 L151.000094,98.593003 Z" id="Fill-14" fill="#5E5E5E" mask="url(#mask-4)"></path>
                <mask id="mask-6" fill="white">
                    <use xlink:href="#path-5"></use>
                </mask>
                <g id="Clip-18"></g>
                <polygon id="Fill-17" fill="#F9BB01" mask="url(#mask-6)" points="-7.91523125 35.6069834 -2.43534687 35.6069834 -2.43534687 30.1289497 -7.91523125 30.1289497"></polygon>
                <polygon id="Fill-19" fill="#F9BB01" mask="url(#mask-6)" points="-12.9188522 39.951909 -16.7934178 36.0786519 -12.9188522 32.204923 -9.04428656 36.0786519"></polygon>
                <polygon id="Fill-20" fill="#F9BB01" mask="url(#mask-6)" points="-18.875 46.5630509 -13.3951156 46.5630509 -13.3951156 41.0850171 -18.875 41.0850171"></polygon>
                <polygon id="Fill-21" fill="#F9BB01" mask="url(#mask-6)" points="-12.9204566 55.4421544 -16.7950222 51.5688973 -12.9204566 47.6951684 -9.04589094 51.5688973"></polygon>
                <polygon id="Fill-22" fill="#F9BB01" mask="url(#mask-6)" points="-7.91523125 57.5191183 -2.43534687 57.5191183 -2.43534687 52.0410846 -7.91523125 52.0410846"></polygon>
                <polygon id="Fill-23" fill="#F9BB01" mask="url(#mask-6)" points="2.57223781 47.6960647 6.44680344 51.5693218 2.57223781 55.4430506 -1.30232781 51.5693218"></polygon>
                <polygon id="Fill-24" fill="#F9BB01" mask="url(#mask-6)" points="3.0445375 46.5630509 8.52442187 46.5630509 8.52442187 41.0850171 3.0445375 41.0850171"></polygon>
                <polygon id="Fill-25" fill="#F9BB01" mask="url(#mask-6)" points="2.57388937 32.2033664 6.448455 36.0766235 2.57388937 39.9503523 -1.30067625 36.0766235"></polygon>
                <polygon id="Fill-26" fill="#F9BB01" mask="url(#mask-6)" points="134.560347 10.9560675 140.040231 10.9560675 140.040231 5.47803373 134.560347 5.47803373"></polygon>
                <polygon id="Fill-27" fill="#F9BB01" mask="url(#mask-6)" points="129.545212 7.55641285 133.419778 11.42967 129.545212 15.3033988 125.670647 11.42967"></polygon>
                <polygon id="Fill-28" fill="#F9BB01" mask="url(#mask-6)" points="123.600578 21.9121349 129.080463 21.9121349 129.080463 16.4341012 123.600578 16.4341012"></polygon>
                <polygon id="Fill-29" fill="#F9BB01" mask="url(#mask-6)" points="129.547572 30.7873232 125.673006 26.9140661 129.547572 23.0403372 133.422137 26.9140661"></polygon>
                <polygon id="Fill-30" fill="#F9BB01" mask="url(#mask-6)" points="134.560347 32.8682024 140.040231 32.8682024 140.040231 27.3901687 134.560347 27.3901687"></polygon>
                <polygon id="Fill-31" fill="#F9BB01" mask="url(#mask-6)" points="145.045221 23.0359503 148.919786 26.9092074 145.045221 30.7829362 141.170655 26.9092074"></polygon>
                <polygon id="Fill-32" fill="#F9BB01" mask="url(#mask-6)" points="145.520116 21.9121349 151 21.9121349 151 16.4341012 145.520116 16.4341012"></polygon>
                <polygon id="Fill-33" fill="#F9BB01" mask="url(#mask-6)" points="145.046825 7.55419578 148.921391 11.4274529 145.046825 15.3011817 141.172259 11.4274529"></polygon>
                <path d="M90.4552759,41.0849228 C99.5218822,41.0849228 106.894929,48.4554797 106.894929,57.519024 C106.894929,66.5820966 99.5218822,73.9526535 90.4552759,73.9526535 C81.3886697,73.9526535 74.0156228,66.5820966 74.0156228,57.519024 C74.0156228,48.4554797 81.3886697,41.0849228 90.4552759,41.0849228 M90.4552759,79.4306872 C102.540938,79.4306872 112.374813,69.600605 112.374813,57.519024 C112.374813,45.4369713 102.540938,35.6068891 90.4552759,35.6068891 C78.3696134,35.6068891 68.5357384,45.4369713 68.5357384,57.519024 C68.5357384,69.600605 78.3696134,79.4306872 90.4552759,79.4306872" id="Fill-10" fill="#F9BB01" mask="url(#mask-6)"></path>
            </g>
        </g>
    </g>
</svg>